# xmcd
#
# Track frame offsets: 
#        182
#        10482
#        24365
#        35982
#        45840
#        61520
#        82097
#        91142
#        110245
#        118402
#        128882
#        147412
#        158800
#
# Disc length: 2241 seconds
#
# Revision: 0
# Processed by: cddbd v1.5.2PL0 Copyright (c) Steve Scherf et al.
# Submitted via: ExactAudioCopy v1.0b3
#
DISCID=af08bf0d
DTITLE=Dave Dudley and Drifters Caravan - Dave Dudley and Drifters Caravan
DTITLE=Stockerpoint
DYEAR=1900
DGENRE=Country
TTITLE0=Six Days on the Road
TTITLE1=Funny How The Time Slips Away
TTITLE2=Kansas City
TTITLE3=Squaws Along The Yukon
TTITLE4=Drinking Champagne
TTITLE5=Kawliga
TTITLE6=Honky Tonk Man
TTITLE7=Sunday Morning Coming Down
TTITLE8=Mocking Bird Hill
TTITLE9=There's Tear In My Beer
TTITLE10=Satin Sheets
TTITLE11=Don't Let Let The Stars Get In Your Eyes
TTITLE12=Golden Slippers
EXTD=
EXTT0=
EXTT1=
EXTT2=
EXTT3=
EXTT4=
EXTT5=
EXTT6=
EXTT7=
EXTT8=
EXTT9=
EXTT10=
EXTT11=
EXTT12=
PLAYORDER=
